<svg xmlns="http://www.w3.org/2000/svg" version="1.1" xmlns:xlink="http://www.w3.org/1999/xlink" width="512" height="512" x="0" y="0" viewBox="0 0 32 32" style="enable-background:new 0 0 512 512" xml:space="preserve" fill-rule="evenodd" class=""><g><path d="M16.11 6c5.368 0 10.03 3.137 12.345 6.12 1.095 1.413 1.662 2.818 1.662 3.88s-.567 2.467-1.662 3.88C26.14 22.863 21.478 26 16.11 26S6.08 22.863 3.765 19.88C2.67 18.467 2.103 17.062 2.103 16s.567-2.467 1.662-3.88C6.08 9.137 10.742 6 16.11 6zm0 2c-4.018 0-7.578 2.025-9.786 4.242-1.345 1.35-2.22 2.735-2.22 3.758s.875 2.408 2.22 3.758C8.532 21.975 12.092 24 16.11 24s7.578-2.025 9.786-4.242c1.345-1.35 2.22-2.735 2.22-3.758s-.875-2.408-2.22-3.758C23.688 10.025 20.128 8 16.11 8zm0 2.5c3.037 0 5.502 2.464 5.502 5.5a5.504 5.504 0 0 1-11.004 0c0-3.036 2.465-5.5 5.502-5.5zm0 2c-1.932 0-3.501 1.568-3.501 3.5a3.502 3.502 0 0 0 7.002 0c0-1.932-1.569-3.5-3.501-3.5z" fill="#00106e" opacity="1" data-original="#000000" class=""></path></g></svg>